<svg xmlns="http://www.w3.org/2000/svg" xmlns:xlink="http://www.w3.org/1999/xlink" width="500" zoomAndPan="magnify" viewBox="0 0 375 374.999991" height="500" preserveAspectRatio="xMidYMid meet" version="1.0"><defs><clipPath id="0956d7f144"><path d="M 114 266 L 124 266 L 124 319.429688 L 114 319.429688 Z M 114 266 " clip-rule="nonzero"/></clipPath><clipPath id="5db5b2a700"><path d="M 243 41.929688 L 335.125 41.929688 L 335.125 137 L 243 137 Z M 243 41.929688 " clip-rule="nonzero"/></clipPath></defs><path fill="#ffffff" d="M 117.128906 314.226562 L 119.324219 262.300781 C 119.324219 262.300781 28.265625 245.484375 28.640625 158.828125 C 29.011719 72.167969 139.4375 50.59375 177.800781 51.296875 C 216.167969 51.996094 254.230469 76.167969 254.230469 76.167969 C 254.230469 76.167969 315.65625 124.789062 294.078125 190.636719 C 272.503906 256.480469 167.59375 278.03125 167.59375 278.03125 Z M 117.128906 314.226562 " fill-opacity="1" fill-rule="nonzero"/><path fill="#e2e2e2" d="M 241.324219 71.207031 C 241.324219 71.207031 315.992188 174.871094 240.710938 250.765625 C 240.710938 250.765625 303.035156 222.382812 297.488281 155.125 C 291.9375 87.863281 241.324219 71.207031 241.324219 71.207031 Z M 241.324219 71.207031 " fill-opacity="1" fill-rule="nonzero"/><path fill="#231f20" d="M 119.59375 259.890625 C 117.996094 259.011719 116.308594 258.386719 114.527344 258.007812 C 112.847656 257.660156 111.15625 257.363281 109.480469 256.976562 C 106.308594 256.234375 103.175781 255.34375 100.082031 254.304688 C 93.800781 252.167969 87.792969 249.433594 82.058594 246.101562 C 76.28125 242.746094 70.875 238.871094 65.84375 234.476562 C 60.808594 230.082031 56.242188 225.246094 52.140625 219.972656 C 35.230469 198.222656 29.253906 169.5625 34.363281 142.636719 C 35.792969 134.8125 38.066406 127.238281 41.1875 119.921875 C 44.308594 112.605469 48.199219 105.722656 52.859375 99.277344 C 54.40625 97.167969 50.917969 94.464844 49.226562 96.46875 C 44.367188 102.207031 40.21875 108.417969 36.78125 115.105469 C 33.34375 121.792969 30.703125 128.78125 28.863281 136.070312 C 27.0625 143.347656 26.023438 150.730469 25.746094 158.222656 C 25.46875 165.710938 25.964844 173.152344 27.226562 180.542969 C 32.144531 209.160156 49.601562 234.308594 73.753906 250.132812 C 80.457031 254.515625 87.566406 258.105469 95.078125 260.894531 C 98.765625 262.273438 102.523438 263.429688 106.351562 264.363281 C 108.179688 264.804688 110.027344 265.230469 111.894531 265.542969 C 114.214844 266.003906 116.527344 265.964844 118.832031 265.429688 C 121.378906 264.839844 121.875 261.085938 119.59375 259.890625 Z M 119.59375 259.890625 " fill-opacity="1" fill-rule="nonzero"/><path fill="#231f20" d="M 299.8125 137.09375 C 297.421875 128.328125 294.011719 119.980469 289.582031 112.050781 C 285.152344 104.117188 279.832031 96.835938 273.621094 90.207031 C 267.449219 83.710938 260.679688 77.921875 253.300781 72.839844 C 245.925781 67.753906 238.109375 63.484375 229.84375 60.027344 C 198.214844 46.542969 162.296875 44.894531 129.132812 53.402344 C 97.347656 61.554688 66.882812 79.167969 45.28125 104.019531 C 42.621094 107.089844 40.082031 110.269531 37.660156 113.558594 C 36.175781 115.554688 39.582031 118.214844 41.128906 116.238281 C 46.070312 109.941406 51.453125 104.042969 57.273438 98.546875 C 63.097656 93.054688 69.296875 88.019531 75.871094 83.453125 C 82.445312 78.882812 89.324219 74.828125 96.503906 71.289062 C 103.6875 67.746094 111.089844 64.761719 118.71875 62.324219 C 149.632812 52.542969 182.996094 51.851562 213.886719 62.117188 C 229.886719 67.441406 245.105469 75.332031 258.011719 86.296875 C 264.539062 91.765625 270.320312 97.9375 275.355469 104.804688 C 280.390625 111.675781 284.535156 119.042969 287.792969 126.914062 C 294.007812 142.386719 296.6875 159.582031 293.90625 176.128906 C 291.21875 192.109375 284.042969 207.078125 274.082031 219.796875 C 251.808594 248.242188 218.117188 263.574219 183.890625 272.496094 C 181.714844 273.074219 179.535156 273.621094 177.351562 274.136719 C 175.183594 274.765625 173.066406 275.539062 171.003906 276.453125 C 170.632812 276.5625 170.296875 276.730469 169.988281 276.960938 C 169.679688 277.191406 169.417969 277.46875 169.207031 277.792969 C 168.996094 278.113281 168.847656 278.460938 168.761719 278.835938 C 168.675781 279.210938 168.65625 279.589844 168.703125 279.972656 C 168.753906 280.355469 168.871094 280.71875 169.050781 281.058594 C 169.230469 281.398438 169.464844 281.699219 169.757812 281.953125 C 170.046875 282.207031 170.371094 282.402344 170.730469 282.539062 C 171.09375 282.679688 171.464844 282.746094 171.851562 282.746094 C 174.429688 282.738281 176.984375 282.5 179.519531 282.027344 C 181.917969 281.492188 184.304688 280.914062 186.683594 280.292969 C 191.253906 279.140625 195.796875 277.890625 200.28125 276.476562 C 209.601562 273.570312 218.6875 270.054688 227.535156 265.933594 C 244.179688 258.128906 259.738281 247.722656 272.441406 234.417969 C 284.476562 221.800781 294.035156 206.667969 299.160156 189.941406 C 300.445312 185.660156 301.421875 181.3125 302.097656 176.894531 C 302.773438 172.476562 303.140625 168.03125 303.195312 163.5625 C 303.25 159.09375 302.992188 154.644531 302.425781 150.210938 C 301.859375 145.777344 300.988281 141.40625 299.8125 137.09375 Z M 299.8125 137.09375 " fill-opacity="1" fill-rule="nonzero"/><g clip-path="url(#0956d7f144)"><path fill="#231f20" d="M 123.183594 267.875 C 122.691406 265.371094 119.160156 265.734375 118.464844 267.875 C 117.921875 269.902344 117.570312 271.964844 117.410156 274.058594 C 117.148438 276.121094 116.921875 278.195312 116.75 280.277344 C 116.386719 284.535156 115.976562 288.792969 115.683594 293.050781 C 115.386719 297.308594 115.109375 301.339844 114.867188 305.484375 L 114.496094 311.703125 C 114.347656 314.183594 113.957031 316.472656 115.777344 318.457031 C 116.070312 318.765625 116.410156 319.003906 116.800781 319.167969 C 117.191406 319.335938 117.597656 319.414062 118.023438 319.40625 C 118.445312 319.402344 118.851562 319.308594 119.234375 319.132812 C 119.621094 318.953125 119.953125 318.707031 120.234375 318.390625 L 120.296875 318.457031 C 122.160156 316.84375 121.960938 314.3125 122.089844 312.050781 L 122.445312 305.832031 C 122.691406 301.578125 122.910156 297.316406 123.105469 293.050781 C 123.296875 288.914062 123.390625 284.757812 123.523438 280.613281 C 123.652344 276.46875 123.980469 271.96875 123.183594 267.875 Z M 123.183594 267.875 " fill-opacity="1" fill-rule="nonzero"/></g><path fill="#231f20" d="M 167.5 274.585938 C 165.027344 275.109375 163.121094 278.152344 161.429688 279.894531 C 159.589844 281.796875 157.714844 283.65625 155.800781 285.472656 C 151.972656 289.113281 148.003906 292.597656 143.894531 295.921875 C 135.714844 302.554688 126.765625 308.105469 118.292969 314.3125 C 118.058594 314.457031 117.855469 314.632812 117.6875 314.847656 C 117.515625 315.0625 117.386719 315.296875 117.300781 315.558594 C 117.214844 315.816406 117.175781 316.085938 117.1875 316.359375 C 117.195312 316.632812 117.253906 316.894531 117.355469 317.148438 C 117.460938 317.402344 117.605469 317.628906 117.796875 317.832031 C 117.984375 318.03125 118.199219 318.191406 118.449219 318.3125 C 118.695312 318.433594 118.953125 318.507812 119.226562 318.53125 C 119.503906 318.554688 119.769531 318.53125 120.035156 318.457031 C 125.117188 316.339844 129.933594 313.738281 134.492188 310.652344 C 139.097656 307.558594 143.554688 304.246094 147.890625 300.785156 C 152.226562 297.324219 156.292969 293.726562 160.257812 289.9375 C 162.164062 288.105469 164.035156 286.238281 165.867188 284.34375 C 167.835938 282.304688 170.621094 280.15625 170.941406 277.222656 C 171.148438 275.332031 169.078125 274.257812 167.5 274.585938 Z M 167.5 274.585938 " fill-opacity="1" fill-rule="nonzero"/><path fill="#231f20" d="M 110.738281 140.953125 C 110.597656 140.460938 110.367188 140.015625 110.050781 139.613281 C 109.730469 139.210938 109.351562 138.882812 108.90625 138.632812 C 108.460938 138.378906 107.984375 138.21875 107.476562 138.152344 C 106.964844 138.085938 106.464844 138.117188 105.96875 138.25 C 105.414062 138.433594 104.921875 138.722656 104.488281 139.117188 C 104.097656 139.097656 103.726562 139.175781 103.375 139.351562 C 103.027344 139.527344 102.742188 139.777344 102.527344 140.105469 C 101.0625 141.257812 100.359375 143.296875 100.046875 145.109375 C 99.664062 147.210938 99.507812 149.335938 99.578125 151.472656 C 99.785156 155.804688 100.828125 159.929688 102.707031 163.839844 C 102.902344 164.167969 103.136719 164.460938 103.414062 164.714844 C 103.695312 164.972656 104.003906 165.183594 104.347656 165.347656 C 104.691406 165.511719 105.046875 165.625 105.425781 165.683594 C 105.800781 165.738281 106.175781 165.742188 106.550781 165.6875 C 107.304688 165.566406 107.96875 165.257812 108.546875 164.757812 C 109.125 164.261719 109.53125 163.648438 109.757812 162.917969 C 111.179688 159.425781 111.976562 155.792969 112.144531 152.019531 C 112.3125 148.25 111.84375 144.5625 110.738281 140.953125 Z M 110.738281 140.953125 " fill-opacity="1" fill-rule="nonzero"/><path fill="#231f20" d="M 198.390625 129.175781 C 197.523438 127.332031 195.050781 127.035156 193.402344 127.867188 C 193.289062 127.921875 193.1875 127.988281 193.082031 128.050781 C 192.378906 128.226562 191.867188 128.644531 191.554688 129.300781 C 190.726562 130.214844 190.167969 131.277344 189.882812 132.480469 C 189.679688 133.347656 189.679688 134.214844 189.882812 135.082031 C 189.332031 138.222656 189.214844 141.375 189.523438 144.546875 C 189.832031 147.71875 190.558594 150.789062 191.703125 153.761719 C 191.90625 154.4375 192.277344 155.007812 192.816406 155.46875 C 193.351562 155.929688 193.96875 156.210938 194.667969 156.3125 C 195.015625 156.359375 195.363281 156.355469 195.710938 156.300781 C 196.058594 156.246094 196.390625 156.140625 196.707031 155.984375 C 197.023438 155.832031 197.308594 155.632812 197.566406 155.394531 C 197.824219 155.152344 198.039062 154.882812 198.214844 154.578125 C 199.222656 152.613281 199.984375 150.5625 200.511719 148.417969 C 201.035156 146.277344 201.304688 144.101562 201.320312 141.898438 C 201.335938 139.691406 201.09375 137.515625 200.597656 135.367188 C 200.105469 133.21875 199.367188 131.152344 198.390625 129.175781 Z M 198.390625 129.175781 " fill-opacity="1" fill-rule="nonzero"/><path fill="#231f20" d="M 208.519531 199.84375 C 205.050781 198.421875 200.625 199.132812 196.976562 199.621094 C 193.097656 200.140625 189.3125 201.054688 185.625 202.359375 C 178.253906 204.976562 171.683594 208.921875 165.910156 214.195312 C 163.578125 216.3125 166.980469 219.589844 169.328125 217.613281 C 174.785156 213.082031 180.902344 209.773438 187.679688 207.683594 C 190.902344 206.683594 194.1875 205.988281 197.539062 205.601562 C 201.171875 205.1875 205.007812 205.714844 208.519531 204.789062 C 211.191406 204.09375 210.703125 200.746094 208.519531 199.84375 Z M 208.519531 199.84375 " fill-opacity="1" fill-rule="nonzero"/><path fill="#231f20" d="M 89.101562 69.679688 C 80.933594 71.917969 73.128906 76.546875 66.242188 81.394531 C 59.144531 86.363281 52.910156 92.246094 47.535156 99.042969 C 45.800781 101.269531 48.722656 104.445312 50.726562 102.242188 C 56.28125 96.109375 62.4375 90.652344 69.199219 85.878906 C 72.511719 83.558594 75.957031 81.445312 79.527344 79.546875 C 83.265625 77.570312 87.167969 75.957031 90.964844 74.109375 C 93.480469 72.90625 91.703125 68.96875 89.101562 69.679688 Z M 89.101562 69.679688 " fill-opacity="1" fill-rule="nonzero"/><g clip-path="url(#5db5b2a700)"><path fill="#231f20" d="M 335.039062 89.3125 C 335.039062 90.863281 334.964844 92.410156 334.816406 93.957031 C 334.667969 95.5 334.449219 97.03125 334.15625 98.554688 C 333.863281 100.074219 333.5 101.578125 333.0625 103.0625 C 332.625 104.546875 332.121094 106.003906 331.546875 107.4375 C 330.972656 108.871094 330.328125 110.273438 329.621094 111.640625 C 328.914062 113.007812 328.140625 114.339844 327.308594 115.628906 C 326.472656 116.917969 325.578125 118.164062 324.625 119.363281 C 323.671875 120.5625 322.664062 121.707031 321.601562 122.804688 C 320.542969 123.902344 319.429688 124.941406 318.269531 125.925781 C 317.105469 126.910156 315.902344 127.835938 314.652344 128.695312 C 313.402344 129.558594 312.117188 130.355469 310.792969 131.085938 C 309.46875 131.816406 308.109375 132.480469 306.722656 133.074219 C 305.335938 133.667969 303.921875 134.1875 302.484375 134.640625 C 301.046875 135.089844 299.59375 135.464844 298.117188 135.769531 C 296.644531 136.070312 295.160156 136.296875 293.664062 136.449219 C 292.171875 136.601562 290.671875 136.679688 289.171875 136.679688 C 287.667969 136.679688 286.167969 136.601562 284.675781 136.449219 C 283.179688 136.296875 281.695312 136.070312 280.222656 135.769531 C 278.75 135.464844 277.292969 135.089844 275.855469 134.640625 C 274.417969 134.1875 273.003906 133.667969 271.617188 133.074219 C 270.230469 132.480469 268.875 131.816406 267.546875 131.085938 C 266.222656 130.355469 264.9375 129.558594 263.6875 128.695312 C 262.4375 127.835938 261.234375 126.910156 260.074219 125.925781 C 258.910156 124.941406 257.800781 123.902344 256.738281 122.804688 C 255.675781 121.707031 254.667969 120.5625 253.714844 119.363281 C 252.761719 118.164062 251.867188 116.917969 251.03125 115.628906 C 250.199219 114.339844 249.425781 113.007812 248.71875 111.640625 C 248.011719 110.273438 247.371094 108.871094 246.792969 107.4375 C 246.21875 106.003906 245.714844 104.546875 245.277344 103.0625 C 244.84375 101.578125 244.476562 100.074219 244.183594 98.554688 C 243.890625 97.03125 243.671875 95.5 243.523438 93.957031 C 243.375 92.410156 243.304688 90.863281 243.304688 89.3125 C 243.304688 87.761719 243.375 86.214844 243.523438 84.671875 C 243.671875 83.125 243.890625 81.59375 244.183594 80.074219 C 244.476562 78.550781 244.84375 77.046875 245.277344 75.5625 C 245.714844 74.078125 246.21875 72.621094 246.792969 71.1875 C 247.371094 69.753906 248.011719 68.351562 248.71875 66.984375 C 249.425781 65.617188 250.199219 64.289062 251.03125 62.996094 C 251.867188 61.707031 252.761719 60.464844 253.714844 59.265625 C 254.667969 58.066406 255.675781 56.917969 256.738281 55.820312 C 257.800781 54.722656 258.910156 53.683594 260.074219 52.699219 C 261.234375 51.714844 262.4375 50.792969 263.6875 49.929688 C 264.9375 49.066406 266.222656 48.269531 267.546875 47.539062 C 268.875 46.808594 270.230469 46.144531 271.617188 45.550781 C 273.003906 44.960938 274.417969 44.4375 275.855469 43.988281 C 277.292969 43.535156 278.75 43.160156 280.222656 42.855469 C 281.695312 42.554688 283.179688 42.328125 284.675781 42.175781 C 286.167969 42.023438 287.667969 41.945312 289.171875 41.945312 C 290.671875 41.945312 292.171875 42.023438 293.664062 42.175781 C 295.160156 42.328125 296.644531 42.554688 298.117188 42.855469 C 299.589844 43.160156 301.046875 43.535156 302.484375 43.988281 C 303.921875 44.4375 305.335938 44.960938 306.722656 45.550781 C 308.109375 46.144531 309.46875 46.808594 310.792969 47.539062 C 312.117188 48.269531 313.402344 49.066406 314.652344 49.929688 C 315.902344 50.792969 317.105469 51.714844 318.269531 52.699219 C 319.429688 53.683594 320.542969 54.722656 321.601562 55.820312 C 322.664062 56.917969 323.671875 58.066406 324.625 59.265625 C 325.578125 60.464844 326.472656 61.707031 327.308594 62.996094 C 328.140625 64.289062 328.914062 65.617188 329.621094 66.984375 C 330.328125 68.351562 330.972656 69.753906 331.546875 71.1875 C 332.121094 72.621094 332.625 74.078125 333.0625 75.5625 C 333.5 77.046875 333.863281 78.550781 334.15625 80.074219 C 334.449219 81.59375 334.667969 83.125 334.816406 84.671875 C 334.964844 86.214844 335.039062 87.761719 335.039062 89.3125 Z M 335.039062 89.3125 " fill-opacity="1" fill-rule="nonzero"/></g><path fill="#ffffff" d="M 304.703125 80.25 C 304.230469 77.902344 303.617188 75.589844 302.863281 73.3125 C 302.304688 71.207031 301.4375 69.238281 300.261719 67.40625 C 298.171875 64.441406 293.921875 61.625 290.375 62.960938 C 287.113281 61.945312 283.535156 63.886719 281.148438 66.160156 C 279.746094 67.550781 278.585938 69.121094 277.664062 70.867188 C 276.742188 72.613281 276.105469 74.457031 275.746094 76.402344 C 275.035156 80.367188 274.855469 84.355469 275.199219 88.367188 C 275.460938 91.957031 276.066406 95.667969 277.914062 98.773438 C 282.066406 105.808594 291.582031 107.089844 297.964844 102.304688 C 304.902344 97.160156 306.140625 88.238281 304.703125 80.25 Z M 294.355469 95.480469 C 291.328125 98.382812 286.550781 98.390625 284.46875 94.722656 C 283.511719 92.714844 283.003906 90.59375 282.945312 88.367188 C 282.714844 85.503906 282.714844 82.636719 282.945312 79.773438 C 283.101562 77.035156 283.992188 74.558594 285.613281 72.34375 C 286.78125 71.050781 288.132812 70.003906 289.671875 69.195312 C 289.917969 69.285156 290.167969 69.347656 290.425781 69.375 C 291.367188 69.378906 292.285156 69.519531 293.183594 69.792969 C 294.246094 70.359375 294.980469 71.210938 295.386719 72.34375 C 296.523438 75.085938 297.289062 77.929688 297.6875 80.875 C 298.570312 85.800781 298.199219 91.808594 294.355469 95.480469 Z M 294.355469 95.480469 " fill-opacity="1" fill-rule="nonzero"/><path fill="#231f20" d="M 102.597656 94.144531 C 101.503906 94.722656 100.863281 95.878906 100.097656 96.890625 C 99.335938 97.90625 98.832031 98.625 98.199219 99.492188 C 96.960938 101.226562 95.703125 102.910156 94.445312 104.617188 C 94.332031 104.816406 94.257812 105.023438 94.222656 105.246094 C 94.1875 105.472656 94.191406 105.691406 94.234375 105.914062 C 94.28125 106.136719 94.363281 106.34375 94.480469 106.535156 C 94.601562 106.726562 94.75 106.890625 94.929688 107.027344 C 95.109375 107.167969 95.304688 107.269531 95.523438 107.335938 C 95.738281 107.402344 95.957031 107.429688 96.183594 107.414062 C 96.410156 107.402344 96.625 107.347656 96.832031 107.257812 C 97.039062 107.164062 97.222656 107.039062 97.382812 106.882812 C 98.691406 105.21875 100.003906 103.554688 101.320312 101.894531 C 102.007812 101.027344 102.699219 100.160156 103.367188 99.292969 C 104.035156 98.425781 105.101562 97.394531 105.328125 96.207031 C 105.40625 95.847656 105.382812 95.496094 105.257812 95.148438 C 105.128906 94.804688 104.917969 94.519531 104.625 94.296875 C 104.332031 94.074219 104 93.949219 103.632812 93.921875 C 103.265625 93.894531 102.921875 93.96875 102.597656 94.144531 Z M 102.597656 94.144531 " fill-opacity="1" fill-rule="nonzero"/><path fill="#231f20" d="M 110.105469 103.386719 C 109.863281 103.042969 109.539062 102.820312 109.136719 102.710938 C 108.953125 102.710938 108.753906 102.640625 108.570312 102.632812 C 108.210938 102.640625 107.875 102.734375 107.566406 102.917969 C 107.363281 103.046875 107.171875 103.191406 106.992188 103.351562 L 106.472656 103.75 C 106.132812 104.019531 105.820312 104.304688 105.5 104.617188 L 103.574219 106.300781 C 103.210938 106.675781 103.023438 107.121094 103.019531 107.644531 C 103.023438 108.171875 103.210938 108.621094 103.574219 109 C 103.949219 109.367188 104.402344 109.554688 104.929688 109.554688 L 105.433594 109.484375 C 105.765625 109.398438 106.054688 109.238281 106.300781 109 L 108.269531 107.429688 C 108.597656 107.167969 108.925781 106.917969 109.238281 106.648438 L 109.707031 106.230469 C 110.242188 105.804688 110.519531 105.25 110.53125 104.566406 C 110.53125 104.121094 110.390625 103.730469 110.105469 103.386719 Z M 110.105469 103.386719 " fill-opacity="1" fill-rule="nonzero"/><path fill="#231f20" d="M 108.371094 61.328125 C 99.855469 62.8125 91.496094 66.53125 83.898438 70.582031 C 76.140625 74.675781 68.976562 79.632812 62.410156 85.445312 C 60.675781 87.015625 63.191406 89.433594 65.011719 88.003906 C 71.546875 82.683594 78.5625 78.085938 86.050781 74.214844 C 93.585938 70.363281 101.476562 67.859375 109.414062 65.03125 C 109.648438 64.953125 109.859375 64.835938 110.050781 64.675781 C 110.238281 64.515625 110.390625 64.328125 110.507812 64.109375 C 110.625 63.890625 110.695312 63.65625 110.722656 63.410156 C 110.75 63.164062 110.726562 62.921875 110.660156 62.683594 C 110.59375 62.445312 110.484375 62.226562 110.335938 62.03125 C 110.183594 61.835938 110 61.671875 109.789062 61.546875 C 109.574219 61.421875 109.347656 61.339844 109.101562 61.300781 C 108.855469 61.261719 108.613281 61.273438 108.371094 61.328125 Z M 108.371094 61.328125 " fill-opacity="1" fill-rule="nonzero"/></svg>