<svg xmlns="http://www.w3.org/2000/svg" xmlns:xlink="http://www.w3.org/1999/xlink" width="500" zoomAndPan="magnify" viewBox="0 0 375 374.999991" height="500" preserveAspectRatio="xMidYMid meet" version="1.0"><path fill="#ffffff" d="M 53.039062 222.917969 L 99.261719 177.800781 L 103.5 175.832031 L 138.738281 85.394531 C 138.738281 85.394531 168.105469 40.277344 210.472656 56.917969 C 252.84375 73.5625 250.925781 119.4375 250.925781 119.4375 L 227.574219 209.886719 L 248.511719 282.511719 Z M 53.039062 222.917969 " fill-opacity="1" fill-rule="nonzero"/><path fill="#e2e2e2" d="M 82.289062 219.542969 L 127.066406 177.921875 C 127.066406 177.921875 152.703125 103.367188 160.277344 83.101562 C 167.851562 62.832031 190.617188 54.511719 203.996094 55.59375 C 203.996094 55.59375 161.023438 46.542969 142.242188 78.757812 L 103.230469 177.558594 L 54.476562 221.707031 L 64.585938 226.417969 Z M 82.289062 219.542969 " fill-opacity="1" fill-rule="nonzero"/><path fill="#231f20" d="M 228.402344 63.800781 C 216.976562 54.714844 202.582031 49.964844 187.996094 51.210938 C 173.660156 52.441406 159.640625 58.292969 149.238281 68.371094 C 137.488281 79.703125 131.695312 95.550781 125.992188 110.5 C 117.722656 132.144531 108.8125 153.699219 101.4375 175.65625 C 100.792969 177.558594 103.910156 178.925781 104.714844 177.070312 C 111.632812 160.929688 117.535156 144.316406 123.792969 127.914062 C 129.617188 112.683594 134.527344 96.386719 143.273438 82.519531 C 159.175781 57.328125 192.460938 48.398438 218.238281 64.007812 C 224.875 68.042969 230.453125 73.214844 234.980469 79.53125 C 239.578125 85.953125 241.890625 93.09375 244.914062 100.289062 C 245.867188 102.5625 249.640625 102.582031 249.570312 99.65625 C 249.21875 85.777344 238.824219 72.082031 228.402344 63.800781 Z M 228.402344 63.800781 " fill-opacity="1" fill-rule="nonzero"/><path fill="#231f20" d="M 249.585938 118.800781 C 245.007812 133.835938 240.757812 148.96875 236.632812 164.125 C 234.613281 171.5625 232.640625 178.996094 230.65625 186.453125 C 228.71875 193.683594 225.992188 201.140625 225.078125 208.585938 C 224.804688 210.851562 228.613281 211.886719 229.476562 209.773438 C 232.386719 202.871094 233.714844 195.074219 235.664062 187.820312 C 237.644531 180.378906 239.644531 172.949219 241.59375 165.476562 C 245.578125 150.273438 249.4375 135.023438 252.957031 119.699219 C 253.003906 119.480469 253.011719 119.257812 252.976562 119.035156 C 252.9375 118.8125 252.863281 118.601562 252.746094 118.410156 C 252.628906 118.214844 252.480469 118.050781 252.300781 117.917969 C 252.117188 117.78125 251.917969 117.683594 251.703125 117.625 C 251.484375 117.566406 251.261719 117.554688 251.039062 117.582031 C 250.816406 117.609375 250.605469 117.675781 250.40625 117.785156 C 250.210938 117.894531 250.039062 118.039062 249.898438 118.214844 C 249.757812 118.390625 249.652344 118.585938 249.585938 118.800781 Z M 249.585938 118.800781 " fill-opacity="1" fill-rule="nonzero"/><path fill="#231f20" d="M 98.949219 176.503906 C 92.683594 180.589844 87.304688 186.765625 81.828125 191.851562 C 75.90625 197.339844 70.113281 203.003906 64.253906 208.570312 C 62.609375 210.136719 65.046875 212.523438 66.722656 211.050781 C 72.570312 205.886719 78.480469 200.796875 84.28125 195.574219 C 89.933594 190.519531 96.6875 185.589844 101.375 179.648438 C 102.660156 178.003906 101.019531 175.152344 98.949219 176.503906 Z M 98.949219 176.503906 " fill-opacity="1" fill-rule="nonzero"/><path fill="#231f20" d="M 243.273438 254.703125 C 241.925781 246.949219 238.84375 239.234375 236.5 231.730469 C 234.117188 224.109375 231.808594 216.433594 229.023438 208.945312 C 228.222656 206.820312 224.988281 207.609375 225.546875 209.910156 C 227.503906 217.953125 230.003906 225.894531 232.398438 233.816406 C 234.648438 241.253906 236.433594 249.164062 239.621094 256.246094 C 240.617188 258.457031 243.636719 256.765625 243.273438 254.703125 Z M 243.273438 254.703125 " fill-opacity="1" fill-rule="nonzero"/><path fill="#231f20" d="M 49.480469 226.835938 C 57.570312 193.785156 261.464844 254.84375 251.082031 291.070312 C 239.261719 332.222656 37.507812 275.757812 49.480469 226.835938 Z M 49.480469 226.835938 " fill-opacity="1" fill-rule="nonzero"/><path fill="#231f20" d="M 251.507812 283.136719 C 250.1875 276.148438 247.265625 268.308594 244.25 261.890625 C 243.316406 259.894531 240.390625 261.359375 240.835938 263.308594 C 242.378906 270.246094 244.90625 278.222656 248.121094 284.554688 C 249.125 286.570312 251.882812 285.089844 251.507812 283.136719 Z M 251.507812 283.136719 " fill-opacity="1" fill-rule="nonzero"/><path fill="#231f20" d="M 61.449219 211.652344 C 57.917969 214.910156 54.890625 218.8125 51.726562 222.402344 C 50.222656 224.109375 52.652344 226.609375 54.242188 224.921875 C 57.527344 221.445312 61.132812 218.054688 64.058594 214.265625 C 65.5 212.429688 63.246094 209.980469 61.449219 211.652344 Z M 61.449219 211.652344 " fill-opacity="1" fill-rule="nonzero"/><path fill="#231f20" d="M 213.25 202.296875 C 206.339844 196.632812 197.167969 193.238281 188.921875 189.945312 C 179.785156 186.324219 170.441406 183.359375 160.890625 181.050781 C 142.519531 176.574219 122.367188 173.53125 103.492188 175.839844 C 101.0625 176.136719 100.933594 179.59375 103.492188 179.726562 C 122.464844 180.730469 140.945312 181.488281 159.527344 186.007812 C 168.269531 188.15625 176.832031 190.867188 185.21875 194.136719 C 194.046875 197.550781 202.320312 202.707031 211.265625 205.667969 C 213.132812 206.277344 214.820312 203.570312 213.25 202.296875 Z M 213.25 202.296875 " fill-opacity="1" fill-rule="nonzero"/><path fill="#ffffff" d="M 172.59375 245.582031 C 171.082031 242.59375 166.601562 245.226562 168.105469 248.207031 C 173.84375 259.625 161.511719 270.914062 150.257812 266.550781 C 139 262.1875 137.324219 246.949219 147.429688 240.410156 C 147.632812 240.289062 147.800781 240.136719 147.941406 239.945312 C 148.082031 239.757812 148.183594 239.546875 148.242188 239.320312 C 148.300781 239.09375 148.3125 238.863281 148.28125 238.628906 C 148.246094 238.394531 148.171875 238.175781 148.054688 237.972656 C 147.933594 237.769531 147.78125 237.597656 147.59375 237.453125 C 147.410156 237.308594 147.203125 237.207031 146.976562 237.144531 C 146.75 237.085938 146.519531 237.070312 146.285156 237.097656 C 146.050781 237.128906 145.832031 237.199219 145.628906 237.316406 C 130.632812 245.050781 133.960938 266.394531 149.160156 271.671875 C 165.074219 277.195312 180.292969 260.800781 172.59375 245.582031 Z M 172.59375 245.582031 " fill-opacity="1" fill-rule="nonzero"/><path fill="#231f20" d="M 192.605469 150.058594 C 191.933594 145.96875 188.1875 142.835938 184.179688 143.472656 C 183.441406 142.976562 182.636719 142.832031 181.769531 143.050781 C 177.3125 144.027344 174.707031 149.480469 175.964844 153.671875 C 176.113281 154.1875 176.308594 154.6875 176.550781 155.167969 C 176.792969 155.644531 177.078125 156.097656 177.40625 156.523438 C 177.734375 156.949219 178.101562 157.339844 178.503906 157.695312 C 178.90625 158.054688 179.335938 158.371094 179.796875 158.644531 C 180.257812 158.917969 180.742188 159.148438 181.246094 159.332031 C 181.75 159.515625 182.265625 159.652344 182.796875 159.738281 C 183.324219 159.824219 183.859375 159.859375 184.394531 159.84375 C 184.929688 159.828125 185.460938 159.765625 185.984375 159.648438 C 186.511719 159.535156 187.019531 159.371094 187.511719 159.160156 C 188.007812 158.949219 188.476562 158.695312 188.921875 158.394531 C 189.367188 158.09375 189.78125 157.757812 190.160156 157.378906 C 190.542969 157 190.886719 156.589844 191.191406 156.148438 C 191.496094 155.703125 191.757812 155.238281 191.972656 154.746094 C 192.1875 154.253906 192.359375 153.746094 192.480469 153.21875 C 192.597656 152.695312 192.671875 152.167969 192.691406 151.628906 C 192.710938 151.089844 192.683594 150.558594 192.605469 150.023438 Z M 187.425781 151.957031 C 187.375 152.214844 187.292969 152.460938 187.179688 152.695312 C 187.070312 152.929688 186.929688 153.148438 186.761719 153.347656 C 186.59375 153.546875 186.402344 153.722656 186.191406 153.871094 C 185.976562 154.023438 185.75 154.144531 185.507812 154.238281 C 185.261719 154.332031 185.011719 154.390625 184.753906 154.417969 C 184.496094 154.449219 184.238281 154.441406 183.980469 154.40625 C 183.722656 154.367188 183.472656 154.296875 183.234375 154.195312 C 182.992188 154.09375 182.769531 153.964844 182.5625 153.804688 C 180.660156 152.390625 181.101562 150.167969 182.859375 148.847656 C 183.433594 148.429688 183.992188 148.140625 184.449219 147.75 C 186.195312 148.515625 187.898438 149.941406 187.425781 151.957031 Z M 187.425781 151.957031 " fill-opacity="1" fill-rule="nonzero"/><path fill="#231f20" d="M 186.894531 147.765625 C 186.402344 147.515625 185.886719 147.359375 185.335938 147.304688 C 184.789062 147.246094 184.25 147.289062 183.71875 147.433594 C 183.1875 147.578125 182.699219 147.8125 182.253906 148.140625 C 181.808594 148.464844 181.4375 148.859375 181.140625 149.324219 C 180.84375 149.789062 180.640625 150.292969 180.527344 150.832031 C 180.417969 151.375 180.410156 151.914062 180.5 152.460938 C 180.589844 153.003906 180.777344 153.515625 181.054688 153.988281 C 181.335938 154.464844 181.691406 154.875 182.125 155.214844 C 183.433594 156.222656 185.425781 156.632812 186.878906 155.675781 C 187.511719 155.230469 187.933594 154.636719 188.144531 153.890625 C 188.332031 153.660156 188.488281 153.40625 188.621094 153.140625 C 188.75 152.871094 188.851562 152.59375 188.917969 152.304688 C 188.988281 152.011719 189.027344 151.71875 189.03125 151.421875 C 189.035156 151.121094 189.007812 150.828125 188.949219 150.535156 C 188.890625 150.242188 188.800781 149.960938 188.679688 149.6875 C 188.554688 149.417969 188.40625 149.160156 188.230469 148.921875 C 188.050781 148.683594 187.851562 148.464844 187.625 148.269531 C 187.398438 148.074219 187.15625 147.90625 186.894531 147.765625 Z M 186.894531 147.765625 " fill-opacity="1" fill-rule="nonzero"/><path fill="#231f20" d="M 174.691406 100.867188 C 173.910156 102.328125 173.234375 103.832031 172.65625 105.378906 C 172.21875 106.414062 171.242188 109.949219 169.789062 109.882812 C 167.242188 109.785156 169.125 101.386719 169.484375 100.160156 C 170.191406 97.808594 166.613281 96.867188 165.84375 99.15625 C 164.488281 103.207031 162.355469 112.300781 168.183594 114.085938 C 170.640625 114.835938 173.128906 113.523438 174.542969 111.542969 C 176.332031 109.097656 177.742188 105.410156 178.535156 102.496094 C 179.179688 100.1875 175.90625 98.78125 174.691406 100.867188 Z M 174.691406 100.867188 " fill-opacity="1" fill-rule="nonzero"/><path fill="#231f20" d="M 217.011719 111.300781 C 216.71875 113.019531 216.207031 114.671875 215.476562 116.257812 C 215.011719 117.214844 213.390625 120.507812 212.515625 118.773438 C 211.949219 117.652344 212.726562 115.230469 212.976562 114.125 C 213.46875 112.257812 214.066406 110.425781 214.777344 108.632812 C 215.484375 106.550781 212.472656 105.488281 211.363281 107.214844 C 208.933594 110.933594 205.324219 120.71875 210.496094 123.777344 C 216.796875 127.511719 220.902344 117.085938 221.800781 112.667969 C 222.410156 109.523438 217.605469 108.164062 217.011719 111.300781 Z M 217.011719 111.300781 " fill-opacity="1" fill-rule="nonzero"/><path fill="#231f20" d="M 217.90625 40.898438 C 209.929688 37.480469 197.933594 42.484375 196.773438 51.734375 C 196.554688 53.535156 198.941406 54.078125 200.042969 53.09375 C 204.285156 49.347656 207.25 43.710938 214 45.304688 C 221.222656 46.984375 222.246094 54.199219 219.78125 60.042969 C 218.742188 62.5 221.820312 65.777344 223.898438 63.230469 C 229.90625 55.820312 226.429688 44.539062 217.90625 40.898438 Z M 217.90625 40.898438 " fill-opacity="1" fill-rule="nonzero"/><path fill="#231f20" d="M 232.160156 252.636719 C 231.78125 252.042969 231.363281 251.480469 230.902344 250.949219 C 230.328125 250.445312 229.710938 250.003906 229.050781 249.625 C 227.933594 248.882812 226.769531 248.207031 225.625 247.5 C 223.4375 246.164062 221.238281 244.859375 219.023438 243.585938 C 214.46875 240.964844 209.832031 238.496094 205.117188 236.175781 C 195.605469 231.492188 185.851562 227.378906 175.855469 223.839844 C 155.890625 216.867188 135.398438 212.222656 114.382812 209.910156 C 102.589844 208.671875 90.773438 208.257812 78.925781 208.671875 C 77.015625 208.726562 77.003906 211.671875 78.925781 211.660156 C 89.308594 211.65625 99.65625 212.25 109.972656 213.445312 C 120.242188 214.542969 130.414062 216.226562 140.492188 218.492188 C 160.707031 223.105469 180.15625 229.921875 198.835938 238.929688 C 204.050781 241.441406 209.1875 244.117188 214.246094 246.949219 C 216.832031 248.394531 219.394531 249.878906 221.933594 251.410156 C 223.203125 252.175781 224.464844 252.949219 225.722656 253.734375 C 226.289062 254.09375 226.859375 254.441406 227.453125 254.773438 C 228.238281 255.164062 229.0625 255.425781 229.925781 255.550781 C 231.4375 255.878906 233.261719 254.152344 232.160156 252.636719 Z M 232.160156 252.636719 " fill-opacity="1" fill-rule="nonzero"/><path fill="#231f20" d="M 295.148438 76.324219 C 289.054688 75.339844 281.765625 77.03125 275.773438 78.269531 C 273.695312 78.710938 274.230469 81.855469 276.257812 81.898438 C 282.152344 82.015625 289.550781 82.351562 295.148438 80.308594 C 296.871094 79.695312 297.375 76.683594 295.148438 76.324219 Z M 295.148438 76.324219 " fill-opacity="1" fill-rule="nonzero"/><path fill="#231f20" d="M 297.527344 96.230469 C 292.90625 96.523438 288.324219 97.128906 283.785156 98.050781 C 288.128906 91.867188 292.566406 85.664062 296.101562 79.035156 C 297.042969 77.257812 294.644531 75.160156 293.203125 76.796875 C 286.84375 84.019531 281.617188 92.378906 276.074219 100.238281 C 275.03125 101.726562 276.40625 104.296875 278.273438 104.078125 C 284.894531 103.296875 291.769531 103.207031 298.277344 101.746094 C 301.351562 101.058594 300.695312 96.117188 297.527344 96.230469 Z M 297.527344 96.230469 " fill-opacity="1" fill-rule="nonzero"/><path fill="#231f20" d="M 324.003906 126.519531 C 317.644531 127.496094 311.03125 129.796875 305.089844 132.304688 C 303.40625 133.015625 303.316406 136.179688 305.578125 135.902344 C 312.148438 135.097656 319.164062 133.828125 325.363281 131.425781 C 325.671875 131.324219 325.953125 131.167969 326.199219 130.957031 C 326.449219 130.746094 326.652344 130.496094 326.804688 130.207031 C 326.960938 129.917969 327.054688 129.613281 327.089844 129.289062 C 327.125 128.960938 327.101562 128.640625 327.011719 128.328125 C 326.925781 128.011719 326.785156 127.722656 326.585938 127.464844 C 326.386719 127.203125 326.148438 126.988281 325.871094 126.820312 C 325.589844 126.652344 325.289062 126.542969 324.964844 126.492188 C 324.644531 126.4375 324.324219 126.449219 324.003906 126.519531 Z M 324.003906 126.519531 " fill-opacity="1" fill-rule="nonzero"/><path fill="#231f20" d="M 327.296875 148.3125 C 323.765625 148.210938 319.957031 149.445312 316.28125 150.8125 C 320.445312 144.132812 324.675781 137.355469 327.695312 130.210938 C 328.402344 128.460938 325.671875 126.917969 324.5 128.347656 C 318.035156 136.265625 313.195312 145.726562 307.957031 154.464844 C 306.8125 156.371094 308.722656 158.941406 310.875 158.273438 C 316.34375 156.574219 323.714844 155.683594 328.363281 152.269531 C 330.011719 151.066406 329.53125 148.382812 327.296875 148.3125 Z M 327.296875 148.3125 " fill-opacity="1" fill-rule="nonzero"/><path fill="#231f20" d="M 281.558594 183.882812 C 279.835938 182.269531 277.050781 182.433594 274.367188 182.90625 C 276.074219 179.675781 277.792969 176.441406 279.488281 173.203125 C 280.328125 171.597656 279.304688 169.40625 277.367188 169.464844 C 274.382812 169.632812 271.414062 169.953125 268.457031 170.429688 C 266.339844 170.71875 267.046875 173.785156 268.933594 173.96875 C 270.378906 174.097656 271.828125 174.230469 273.277344 174.328125 C 271.355469 177.914062 269.4375 181.496094 267.527344 185.082031 C 266.671875 186.679688 267.710938 188.988281 269.710938 188.882812 C 273.441406 188.691406 279.417969 189.777344 281.882812 186.46875 C 282.132812 186.050781 282.222656 185.601562 282.164062 185.121094 C 282.101562 184.640625 281.902344 184.226562 281.558594 183.882812 Z M 281.558594 183.882812 " fill-opacity="1" fill-rule="nonzero"/></svg>